<svg xmlns="http://www.w3.org/2000/svg" xmlns:xlink="http://www.w3.org/1999/xlink" id="svg" version="1.1" width="400" height="391.4893617021276" viewBox="0, 0, 400,391.4893617021276"><g id="svgg"><path id="path0" d="M132.558 57.078 C 132.096 57.169,131.407 57.585,131.028 58.004 C 130.424 58.672,129.799 58.766,125.953 58.766 C 123.540 58.766,121.055 58.920,120.431 59.108 C 117.626 59.953,113.503 60.730,109.928 61.087 C 106.442 61.436,105.922 61.592,104.835 62.620 C 103.099 64.261,102.416 64.530,98.710 65.029 C 94.193 65.638,93.696 65.787,93.434 66.612 C 93.113 67.625,90.858 68.853,88.185 69.471 C 86.485 69.864,85.534 70.365,84.467 71.433 C 83.678 72.222,82.553 73.171,81.967 73.543 C 81.381 73.914,80.093 74.887,79.106 75.704 C 78.119 76.522,76.532 77.415,75.580 77.689 C 74.226 78.079,73.679 78.501,73.068 79.632 C 72.469 80.740,71.749 81.311,69.986 82.075 C 66.565 83.559,53.477 96.693,52.153 99.971 C 51.454 101.702,50.959 102.336,49.924 102.827 C 48.827 103.348,48.487 103.823,47.990 105.533 C 47.619 106.809,46.919 108.048,46.172 108.750 C 45.505 109.378,44.457 110.996,43.845 112.346 C 43.038 114.124,42.353 115.022,41.358 115.610 C 39.933 116.450,39.909 116.512,39.353 120.862 C 39.037 123.338,38.387 124.872,37.056 126.289 C 36.404 126.983,35.789 128.319,35.434 129.815 C 35.118 131.139,34.700 132.752,34.504 133.399 C 34.308 134.045,34.028 135.329,33.883 136.253 C 33.738 137.176,33.173 138.462,32.627 139.110 C 30.312 141.861,30.206 181.869,32.507 184.318 C 33.032 184.877,33.650 186.279,33.935 187.559 C 34.212 188.799,34.619 190.519,34.839 191.381 C 35.060 192.243,35.246 194.006,35.252 195.299 C 35.267 198.354,35.844 200.353,37.063 201.572 C 38.349 202.858,39.078 204.664,39.368 207.280 C 39.962 212.640,39.982 212.710,41.535 214.504 C 43.263 216.500,43.873 218.267,43.876 221.279 C 43.879 223.776,44.311 224.705,45.624 225.034 C 46.916 225.358,47.788 227.122,48.118 230.077 C 48.374 232.372,48.445 232.498,49.951 233.275 C 51.316 233.980,51.625 234.404,52.347 236.561 C 52.874 238.132,53.695 239.569,54.596 240.491 C 55.474 241.390,56.246 242.723,56.622 243.989 C 56.958 245.121,57.461 246.033,57.749 246.033 C 58.838 246.033,60.166 247.587,60.885 249.701 C 61.377 251.150,62.143 252.371,63.132 253.287 C 63.958 254.051,64.736 255.155,64.861 255.741 C 65.275 257.681,65.792 258.570,66.506 258.570 C 67.660 258.570,68.917 259.695,69.261 261.036 C 69.494 261.945,69.981 262.481,71.022 262.977 C 71.952 263.419,72.744 264.215,73.260 265.227 C 73.788 266.262,74.516 266.983,75.407 267.356 C 76.301 267.730,76.993 268.416,77.458 269.393 C 77.900 270.323,78.719 271.163,79.680 271.672 C 80.590 272.154,81.455 273.016,81.835 273.819 C 82.277 274.754,82.882 275.294,83.839 275.603 C 84.894 275.945,85.410 276.460,86.075 277.834 C 86.835 279.405,87.127 279.650,88.494 279.869 C 89.597 280.045,90.484 280.566,91.547 281.662 C 92.450 282.592,93.981 283.572,95.397 284.125 C 97.302 284.869,97.880 285.311,98.448 286.461 C 98.935 287.449,99.616 288.067,100.688 288.496 C 101.785 288.935,102.454 289.554,103.012 290.648 C 103.765 292.124,103.889 292.193,106.256 292.464 C 109.258 292.808,110.757 293.529,111.370 294.926 C 111.951 296.248,112.254 296.469,114.202 296.996 C 115.068 297.230,116.470 298.092,117.336 298.924 C 118.607 300.144,119.383 300.522,121.442 300.920 C 123.543 301.326,124.286 301.696,125.751 303.066 C 127.205 304.426,127.970 304.810,130.028 305.215 C 132.054 305.613,132.893 306.027,134.418 307.381 C 135.903 308.700,136.703 309.104,138.181 309.285 C 144.316 310.035,145.357 310.333,147.088 311.832 C 148.322 312.900,149.520 313.484,151.474 313.972 C 153.471 314.470,154.521 314.990,155.555 315.994 C 156.999 317.395,157.571 317.565,163.878 318.461 C 165.842 318.740,166.907 319.131,167.932 319.949 C 170.207 321.763,171.043 322.068,174.808 322.458 C 178.382 322.827,181.273 323.971,182.061 325.327 C 182.411 325.929,185.792 326.737,187.972 326.741 C 190.332 326.744,192.316 327.484,193.966 328.975 L 195.516 330.375 201.058 330.715 C 207.835 331.130,209.205 331.478,211.219 333.298 L 212.795 334.722 220.697 335.071 C 227.095 335.354,228.926 335.563,230.314 336.172 C 231.287 336.599,232.914 336.925,234.073 336.925 C 235.618 336.925,236.290 337.115,236.825 337.706 C 238.118 339.135,239.899 339.271,257.395 339.271 C 274.890 339.271,276.671 339.135,277.965 337.706 C 278.505 337.109,279.171 336.925,280.785 336.925 C 281.963 336.925,283.440 336.645,284.120 336.293 C 284.917 335.881,287.464 335.487,291.447 335.161 C 297.521 334.662,298.923 334.401,298.923 333.765 C 298.923 332.851,302.475 331.437,306.158 330.883 C 309.655 330.358,310.129 330.186,310.939 329.152 C 311.916 327.904,313.857 326.988,316.434 326.559 C 317.688 326.350,318.612 325.781,320.325 324.161 C 321.560 322.993,322.722 322.037,322.908 322.037 C 323.094 322.037,324.091 321.247,325.123 320.282 C 326.343 319.140,327.537 318.415,328.534 318.208 C 329.785 317.949,330.234 317.590,330.965 316.267 C 331.603 315.114,332.260 314.513,333.236 314.191 C 334.133 313.895,334.943 313.210,335.569 312.218 C 336.097 311.382,337.037 310.435,337.657 310.114 C 338.350 309.756,339.034 308.910,339.428 307.926 C 339.898 306.753,340.433 306.170,341.422 305.757 C 342.857 305.157,343.585 304.186,343.585 302.870 C 343.585 302.427,344.466 301.092,345.544 299.902 C 346.621 298.712,347.502 297.606,347.502 297.443 C 347.502 297.280,348.386 296.181,349.465 295.000 C 350.545 293.820,351.499 292.589,351.586 292.264 C 351.673 291.940,351.954 290.744,352.212 289.606 C 352.546 288.129,353.121 287.064,354.221 285.884 C 355.940 284.041,356.009 283.834,356.243 279.822 C 356.412 276.929,356.626 276.454,359.289 273.052 C 359.997 272.147,360.099 271.125,360.423 261.690 C 360.620 255.988,360.937 250.793,361.129 250.147 C 361.339 249.440,361.329 248.425,361.105 247.600 C 360.899 246.846,360.847 245.083,360.987 243.683 C 361.128 242.282,361.235 240.960,361.226 240.744 C 360.536 224.789,360.008 217.643,359.463 216.897 C 356.755 213.185,356.747 213.161,355.908 206.350 C 355.748 205.053,355.321 204.067,354.527 203.162 C 353.014 201.440,352.336 199.733,352.025 196.866 C 351.635 193.258,351.486 192.825,350.538 192.536 C 349.097 192.097,348.356 191.208,347.659 189.082 C 347.297 187.976,346.331 186.338,345.513 185.442 C 344.695 184.545,343.914 183.223,343.777 182.503 C 343.473 180.898,342.939 180.198,341.423 179.418 C 340.753 179.072,339.921 178.118,339.471 177.180 C 339.040 176.280,337.855 174.611,336.838 173.472 C 335.820 172.333,334.586 170.800,334.095 170.066 C 333.098 168.576,332.951 168.475,329.761 167.112 C 327.935 166.331,327.383 165.875,326.918 164.761 C 326.430 163.594,326.053 163.307,324.499 162.915 C 323.389 162.636,322.029 161.883,321.074 161.020 C 320.203 160.232,318.469 159.181,317.221 158.683 C 315.544 158.016,314.788 157.461,314.326 156.559 C 313.511 154.968,313.155 154.763,311.185 154.756 C 307.931 154.744,305.566 153.968,303.785 152.325 L 302.101 150.773 296.496 150.392 C 293.413 150.183,289.148 149.667,287.017 149.246 C 281.293 148.117,262.766 148.134,257.610 149.274 C 250.863 150.766,246.238 150.103,245.250 147.502 C 244.820 146.372,244.380 146.271,243.661 147.137 C 242.719 148.272,240.994 148.874,238.680 148.874 C 235.525 148.874,232.417 149.873,230.672 151.448 C 229.774 152.259,228.353 152.999,226.951 153.386 C 222.331 154.661,206.453 162.884,204.602 164.960 C 201.888 168.003,198.210 169.847,196.485 169.029 C 195.148 168.395,195.134 168.363,195.701 167.267 C 196.018 166.653,196.278 165.809,196.278 165.392 C 196.278 164.113,200.833 155.411,202.157 154.163 C 202.841 153.516,203.742 152.326,204.157 151.519 C 204.573 150.711,205.591 149.601,206.421 149.052 C 207.322 148.456,208.225 147.395,208.666 146.418 C 209.620 144.299,212.295 141.640,214.527 140.590 C 215.497 140.134,216.530 139.299,216.822 138.734 C 217.631 137.170,218.599 136.487,220.963 135.812 C 222.267 135.439,223.705 134.660,224.596 133.844 C 225.560 132.961,226.780 132.327,228.119 132.013 C 230.646 131.420,231.326 131.078,233.273 129.420 C 234.120 128.699,235.018 128.110,235.269 128.110 C 237.805 128.110,237.411 124.289,234.567 121.295 C 233.587 120.263,233.009 119.228,232.847 118.215 C 232.652 116.994,232.301 116.498,231.091 115.734 C 230.136 115.131,229.270 114.124,228.743 113.003 C 228.172 111.787,227.461 110.998,226.491 110.502 C 224.996 109.738,221.352 105.990,221.352 105.216 C 221.352 104.458,215.602 99.182,214.086 98.549 C 213.163 98.163,212.518 97.554,212.233 96.801 C 211.945 96.036,211.194 95.338,210.013 94.737 C 208.782 94.111,208.020 93.385,207.555 92.394 C 207.075 91.371,206.553 90.887,205.734 90.707 C 204.377 90.409,203.393 89.420,203.003 87.965 C 202.784 87.145,202.292 86.765,200.773 86.244 C 199.702 85.876,198.057 84.876,197.120 84.021 C 195.326 82.387,195.009 82.068,193.150 80.019 C 192.514 79.318,191.062 78.379,189.924 77.931 C 187.704 77.058,186.484 76.166,186.484 75.416 C 186.484 74.666,185.219 73.781,183.750 73.503 C 182.946 73.351,181.773 72.645,180.893 71.784 C 179.935 70.847,178.528 70.032,176.967 69.510 C 174.882 68.814,174.409 68.472,173.654 67.116 C 172.798 65.579,172.700 65.527,170.214 65.272 C 166.068 64.847,165.417 64.623,163.549 62.980 L 161.772 61.415 156.988 61.060 C 148.561 60.434,143.049 59.433,141.842 58.309 C 140.410 56.975,136.044 56.396,132.558 57.078 M125.679 177.663 C 128.021 178.845,130.216 180.124,130.558 180.504 C 134.250 184.616,129.053 195.103,123.322 195.103 C 118.802 195.103,113.614 191.158,113.614 187.721 C 113.614 182.658,115.602 178.376,118.738 176.689 C 121.405 175.253,120.712 175.156,125.679 177.663 M85.254 205.616 C 90.503 209.418,93.641 213.799,93.620 217.297 C 93.577 224.474,90.938 228.933,85.977 230.213 C 84.694 230.544,82.553 231.420,81.221 232.160 L 78.798 233.506 74.169 231.053 C 67.922 227.742,67.021 226.281,67.004 219.435 C 66.988 212.791,67.910 209.941,70.502 208.628 C 71.551 208.096,72.783 207.137,73.239 206.496 C 74.849 204.235,82.568 203.670,85.254 205.616 M166.581 261.939 C 168.121 262.715,170.342 263.600,171.517 263.906 C 177.171 265.378,181.058 275.879,177.772 280.803 C 176.558 282.622,172.314 286.923,170.264 288.411 C 167.536 290.391,160.827 289.819,158.276 287.387 C 157.522 286.669,156.376 285.815,155.729 285.490 C 151.943 283.589,150.486 272.999,153.292 267.779 C 154.395 265.726,161.232 260.964,163.673 260.547 C 163.732 260.537,165.041 261.164,166.581 261.939 M314.729 271.938 C 318.876 273.168,319.951 274.868,320.368 280.854 L 320.541 283.353 317.861 285.870 C 313.689 289.789,311.271 290.303,307.155 288.144 C 302.841 285.882,300.559 276.819,303.608 274.059 C 306.603 271.349,310.339 270.636,314.729 271.938 " stroke="none" fill="#da9a83" fill-rule="evenodd"/><path id="path1" d="M132.686 56.280 C 132.545 56.420,129.210 56.657,125.275 56.807 C 118.321 57.070,118.053 57.111,115.769 58.275 C 114.248 59.050,112.519 59.567,110.872 59.739 C 107.130 60.132,103.882 61.034,101.665 62.296 C 100.588 62.910,98.371 63.769,96.739 64.206 C 92.565 65.324,91.678 65.709,90.856 66.753 C 90.090 67.728,89.312 68.092,85.673 69.179 C 84.033 69.669,83.126 70.210,82.442 71.106 C 81.920 71.791,80.615 72.829,79.544 73.412 C 78.472 73.995,77.489 74.644,77.359 74.854 C 77.230 75.064,76.288 75.659,75.266 76.177 C 74.245 76.694,72.553 77.926,71.508 78.914 C 70.462 79.901,68.668 81.153,67.522 81.696 C 66.176 82.332,65.223 83.096,64.833 83.850 C 64.501 84.492,63.535 85.478,62.686 86.039 C 61.837 86.601,60.797 87.647,60.374 88.364 C 59.951 89.081,59.062 89.948,58.400 90.290 C 57.737 90.633,56.756 91.609,56.219 92.458 C 55.683 93.308,54.709 94.280,54.054 94.619 C 53.269 95.024,52.519 95.961,51.854 97.366 C 51.299 98.538,50.161 100.274,49.325 101.224 C 48.489 102.173,47.468 103.736,47.057 104.697 C 46.645 105.657,45.872 106.786,45.339 107.206 C 44.806 107.625,43.911 108.937,43.351 110.121 C 42.791 111.305,41.784 112.884,41.113 113.630 C 39.573 115.341,38.963 116.534,38.614 118.511 C 38.462 119.373,37.725 121.201,36.976 122.574 C 36.227 123.947,35.004 126.843,34.258 129.011 C 33.513 131.179,32.639 133.243,32.318 133.598 C 31.997 133.953,31.731 134.583,31.727 134.997 C 31.724 135.411,31.390 137.336,30.985 139.275 C 30.580 141.214,30.130 145.181,29.984 148.090 C 29.838 150.999,29.562 154.841,29.371 156.627 C 29.138 158.797,29.161 160.228,29.438 160.937 C 29.666 161.520,29.837 163.408,29.816 165.132 C 29.704 174.718,31.207 188.466,32.579 190.402 C 33.328 191.460,33.720 192.967,34.668 198.433 C 35.065 200.727,35.736 202.849,36.588 204.505 C 37.340 205.971,38.255 208.715,38.743 210.970 C 39.215 213.155,39.930 215.320,40.361 215.867 C 41.776 217.662,42.593 219.568,42.868 221.713 C 43.186 224.196,43.540 224.960,45.269 226.895 C 46.130 227.857,46.712 229.063,47.054 230.588 C 47.463 232.419,47.882 233.155,49.242 234.434 C 50.459 235.580,51.143 236.678,51.721 238.416 C 52.193 239.832,53.006 241.281,53.708 241.954 C 54.362 242.580,55.214 243.808,55.601 244.683 C 55.988 245.558,57.101 247.171,58.075 248.267 C 59.048 249.364,60.147 251.051,60.516 252.017 C 60.885 252.983,61.702 254.154,62.332 254.620 C 62.962 255.086,63.830 256.217,64.261 257.133 C 64.691 258.049,65.577 259.113,66.229 259.498 C 66.881 259.883,67.827 260.846,68.331 261.637 C 68.835 262.428,71.319 265.103,73.850 267.581 C 76.382 270.059,79.356 272.976,80.460 274.064 C 81.565 275.152,82.941 276.338,83.518 276.699 C 84.096 277.061,84.876 277.879,85.253 278.517 C 85.630 279.156,86.794 280.143,87.838 280.712 C 88.883 281.280,90.014 282.167,90.352 282.683 C 90.690 283.198,91.934 284.063,93.116 284.605 C 95.198 285.558,97.482 287.339,101.523 291.161 C 103.066 292.621,103.909 293.090,105.625 293.447 C 107.242 293.782,108.252 294.310,109.644 295.546 C 110.667 296.455,112.111 297.437,112.853 297.730 C 113.595 298.022,114.828 298.852,115.593 299.575 C 116.587 300.514,117.816 301.118,119.902 301.692 C 122.063 302.288,123.187 302.853,124.234 303.869 C 125.304 304.908,126.346 305.420,128.532 305.982 C 130.788 306.563,131.696 307.021,132.699 308.084 C 133.690 309.134,134.496 309.547,136.237 309.894 C 140.221 310.689,141.582 311.116,143.781 312.263 C 144.966 312.881,147.401 313.915,149.193 314.560 C 150.985 315.205,153.038 316.248,153.755 316.878 C 154.794 317.790,155.795 318.158,158.677 318.688 C 162.913 319.466,163.863 319.788,165.750 321.086 C 166.632 321.693,168.808 322.420,171.626 323.050 C 174.367 323.663,176.920 324.509,178.212 325.232 C 179.489 325.947,182.043 326.798,184.676 327.387 C 187.167 327.944,189.873 328.832,191.000 329.462 C 193.019 330.592,195.467 331.208,199.608 331.627 C 203.754 332.047,206.220 332.666,208.227 333.790 C 210.363 334.987,212.894 335.578,217.434 335.941 C 225.703 336.602,227.792 336.964,229.383 338.008 C 233.873 340.956,280.471 340.967,285.602 338.022 C 286.781 337.345,288.468 336.861,290.695 336.560 C 297.702 335.614,300.507 334.941,302.953 333.622 C 304.291 332.899,306.357 332.091,307.542 331.824 C 310.483 331.163,311.973 330.515,313.708 329.141 C 314.518 328.499,315.975 327.766,316.944 327.511 C 319.444 326.855,320.918 326.038,321.974 324.727 C 322.478 324.101,323.447 323.304,324.128 322.956 C 324.810 322.609,326.113 321.643,327.024 320.809 C 327.935 319.976,328.959 319.295,329.300 319.295 C 330.180 319.295,343.744 305.615,344.686 303.777 C 345.116 302.938,345.942 301.812,346.523 301.273 C 347.104 300.735,347.909 299.649,348.313 298.862 C 348.717 298.074,349.583 297.010,350.237 296.498 C 351.101 295.822,351.745 294.669,352.589 292.282 C 353.228 290.475,354.189 288.539,354.725 287.980 C 355.922 286.730,356.747 284.472,357.117 281.438 C 357.417 278.971,357.919 277.728,359.216 276.241 C 360.514 274.752,360.817 273.031,361.409 263.798 C 361.987 254.772,362.070 254.128,363.060 250.981 C 363.614 249.218,363.605 248.910,362.944 246.965 C 362.250 244.923,362.250 244.793,362.947 242.743 C 363.627 240.741,363.630 240.525,363.010 238.727 C 362.647 237.674,362.187 234.468,361.980 231.538 C 360.935 216.794,360.733 215.541,358.869 212.180 C 358.261 211.084,357.650 209.569,357.512 208.815 C 356.730 204.533,355.873 201.697,354.730 199.608 C 354.022 198.315,353.242 196.464,352.996 195.495 C 352.750 194.525,352.458 193.418,352.347 193.035 C 352.235 192.653,351.438 191.524,350.575 190.527 C 349.712 189.529,348.571 187.729,348.038 186.525 C 347.506 185.322,346.748 183.983,346.353 183.549 C 345.958 183.116,345.338 182.174,344.975 181.456 C 344.611 180.738,343.397 179.151,342.277 177.930 C 341.156 176.709,339.807 175.010,339.279 174.153 C 338.751 173.297,337.763 172.108,337.083 171.511 C 336.402 170.913,335.617 169.872,335.337 169.196 C 334.960 168.287,334.289 167.728,332.761 167.052 C 331.624 166.549,329.723 165.259,328.536 164.184 C 327.350 163.110,325.799 161.937,325.090 161.579 C 324.380 161.220,323.424 160.584,322.964 160.164 C 322.505 159.744,321.094 158.909,319.830 158.309 C 318.566 157.708,316.772 156.579,315.844 155.800 C 314.190 154.411,312.147 153.581,310.369 153.577 C 309.077 153.574,306.719 152.508,305.571 151.409 C 304.599 150.478,300.653 149.612,293.046 148.660 C 291.861 148.512,289.745 147.927,288.345 147.361 L 285.798 146.331 272.478 146.329 L 259.158 146.327 256.249 147.405 C 250.238 149.631,246.644 148.223,245.101 143.038 C 244.806 142.046,243.994 140.000,243.296 138.492 C 242.376 136.500,241.941 134.857,241.711 132.492 C 241.527 130.595,241.134 128.877,240.771 128.378 C 239.100 126.081,238.142 124.452,237.565 122.926 C 237.217 122.006,236.446 120.813,235.851 120.274 C 235.256 119.736,234.307 118.375,233.741 117.251 C 233.176 116.127,231.955 114.354,231.029 113.311 C 230.102 112.268,228.939 110.759,228.444 109.958 C 227.949 109.157,227.046 108.245,226.438 107.930 C 225.829 107.615,224.944 106.813,224.470 106.148 C 222.842 103.862,218.323 99.580,216.623 98.713 C 215.687 98.235,214.015 96.941,212.908 95.837 C 209.536 92.473,207.106 90.281,205.974 89.580 C 205.381 89.214,204.442 88.229,203.889 87.392 C 203.335 86.555,202.321 85.638,201.637 85.356 C 200.952 85.073,199.751 84.219,198.969 83.459 C 198.186 82.699,197.064 81.745,196.477 81.340 C 195.889 80.935,195.058 80.009,194.629 79.283 C 194.201 78.557,193.689 77.963,193.493 77.963 C 192.624 77.963,189.530 76.209,188.222 74.976 C 187.435 74.234,186.061 73.261,185.168 72.814 C 184.276 72.367,183.017 71.504,182.370 70.895 C 181.724 70.286,180.137 69.403,178.844 68.932 C 177.290 68.367,175.939 67.510,174.858 66.405 C 173.425 64.939,172.898 64.677,170.577 64.273 C 167.623 63.758,166.753 63.393,165.328 62.071 C 164.181 61.006,162.604 60.615,155.275 59.579 C 152.293 59.158,149.166 58.525,148.326 58.172 C 144.843 56.711,133.613 55.352,132.686 56.280 M139.749 57.166 C 140.437 57.364,141.379 57.878,141.842 58.309 C 143.049 59.433,148.561 60.434,156.988 61.060 L 161.772 61.415 163.549 62.980 C 165.417 64.623,166.068 64.847,170.214 65.272 C 172.700 65.527,172.798 65.579,173.654 67.116 C 174.409 68.472,174.882 68.814,176.967 69.510 C 178.528 70.032,179.935 70.847,180.893 71.784 C 181.773 72.645,182.946 73.351,183.750 73.503 C 185.219 73.781,186.484 74.666,186.484 75.416 C 186.484 76.166,187.704 77.058,189.924 77.931 C 191.062 78.379,192.514 79.318,193.150 80.019 C 195.009 82.068,195.326 82.387,197.120 84.021 C 198.057 84.876,199.702 85.876,200.773 86.244 C 202.292 86.765,202.784 87.145,203.003 87.965 C 203.393 89.420,204.377 90.409,205.734 90.707 C 206.553 90.887,207.075 91.371,207.555 92.394 C 208.020 93.385,208.782 94.111,210.013 94.737 C 211.194 95.338,211.945 96.036,212.233 96.801 C 212.518 97.554,213.163 98.163,214.086 98.549 C 215.602 99.182,221.352 104.458,221.352 105.216 C 221.352 105.990,224.996 109.738,226.491 110.502 C 227.461 110.998,228.172 111.787,228.743 113.003 C 229.270 114.124,230.136 115.131,231.091 115.734 C 232.301 116.498,232.652 116.994,232.847 118.215 C 233.009 119.228,233.587 120.263,234.567 121.295 C 237.411 124.289,237.805 128.110,235.269 128.110 C 235.018 128.110,234.120 128.699,233.273 129.420 C 231.326 131.078,230.646 131.420,228.119 132.013 C 226.780 132.327,225.560 132.961,224.596 133.844 C 223.705 134.660,222.267 135.439,220.963 135.812 C 218.599 136.487,217.631 137.170,216.822 138.734 C 216.530 139.299,215.497 140.134,214.527 140.590 C 212.295 141.640,209.620 144.299,208.666 146.418 C 208.225 147.395,207.322 148.456,206.421 149.052 C 205.591 149.601,204.573 150.711,204.157 151.519 C 203.742 152.326,202.841 153.516,202.157 154.163 C 200.833 155.411,196.278 164.113,196.278 165.392 C 196.278 165.809,196.018 166.653,195.701 167.267 C 195.134 168.363,195.148 168.395,196.485 169.029 C 198.210 169.847,201.888 168.003,204.602 164.960 C 206.453 162.884,222.331 154.661,226.951 153.386 C 228.353 152.999,229.774 152.259,230.672 151.448 C 232.417 149.873,235.525 148.874,238.680 148.874 C 240.994 148.874,242.719 148.272,243.661 147.137 C 244.380 146.271,244.820 146.372,245.250 147.502 C 246.238 150.103,250.863 150.766,257.610 149.274 C 262.766 148.134,281.293 148.117,287.017 149.246 C 289.148 149.667,293.413 150.183,296.496 150.392 L 302.101 150.773 303.785 152.325 C 305.566 153.968,307.931 154.744,311.185 154.756 C 313.155 154.763,313.511 154.968,314.326 156.559 C 314.788 157.461,315.544 158.016,317.221 158.683 C 318.469 159.181,320.203 160.232,321.074 161.020 C 322.029 161.883,323.389 162.636,324.499 162.915 C 326.053 163.307,326.430 163.594,326.918 164.761 C 327.383 165.875,327.935 166.331,329.761 167.112 C 332.951 168.475,333.098 168.576,334.095 170.066 C 334.586 170.800,335.820 172.333,336.838 173.472 C 337.855 174.611,339.040 176.280,339.471 177.180 C 339.921 178.118,340.753 179.072,341.423 179.418 C 342.939 180.198,343.473 180.898,343.777 182.503 C 343.914 183.223,344.695 184.545,345.513 185.442 C 346.331 186.338,347.297 187.976,347.659 189.082 C 348.356 191.208,349.097 192.097,350.538 192.536 C 351.486 192.825,351.635 193.258,352.025 196.866 C 352.336 199.733,353.014 201.440,354.527 203.162 C 355.321 204.067,355.748 205.053,355.908 206.350 C 356.747 213.161,356.755 213.185,359.463 216.897 C 360.008 217.643,360.536 224.789,361.226 240.744 C 361.235 240.960,361.128 242.282,360.987 243.683 C 360.847 245.083,360.899 246.846,361.105 247.600 C 361.329 248.425,361.339 249.440,361.129 250.147 C 360.937 250.793,360.620 255.988,360.423 261.690 C 360.099 271.125,359.997 272.147,359.289 273.052 C 356.626 276.454,356.412 276.929,356.243 279.822 C 356.009 283.834,355.940 284.041,354.221 285.884 C 353.121 287.064,352.546 288.129,352.212 289.606 C 351.954 290.744,351.673 291.940,351.586 292.264 C 351.499 292.589,350.545 293.820,349.465 295.000 C 348.386 296.181,347.502 297.280,347.502 297.443 C 347.502 297.606,346.621 298.712,345.544 299.902 C 344.466 301.092,343.585 302.427,343.585 302.870 C 343.585 304.186,342.857 305.157,341.422 305.757 C 340.433 306.170,339.898 306.753,339.428 307.926 C 339.034 308.910,338.350 309.756,337.657 310.114 C 337.037 310.435,336.097 311.382,335.569 312.218 C 334.943 313.210,334.133 313.895,333.236 314.191 C 332.260 314.513,331.603 315.114,330.965 316.267 C 330.234 317.590,329.785 317.949,328.534 318.208 C 327.537 318.415,326.343 319.140,325.123 320.282 C 324.091 321.247,323.094 322.037,322.908 322.037 C 322.722 322.037,321.560 322.993,320.325 324.161 C 318.612 325.781,317.688 326.350,316.434 326.559 C 313.857 326.988,311.916 327.904,310.939 329.152 C 310.129 330.186,309.655 330.358,306.158 330.883 C 302.475 331.437,298.923 332.851,298.923 333.765 C 298.923 334.401,297.521 334.662,291.447 335.161 C 287.464 335.487,284.917 335.881,284.120 336.293 C 283.440 336.645,281.963 336.925,280.785 336.925 C 279.171 336.925,278.505 337.109,277.965 337.706 C 276.671 339.135,274.890 339.271,257.395 339.271 C 239.899 339.271,238.118 339.135,236.825 337.706 C 236.290 337.115,235.618 336.925,234.073 336.925 C 232.914 336.925,231.287 336.599,230.314 336.172 C 228.926 335.563,227.095 335.354,220.697 335.071 L 212.795 334.722 211.219 333.298 C 209.205 331.478,207.835 331.130,201.058 330.715 L 195.516 330.375 193.966 328.975 C 192.316 327.484,190.332 326.744,187.972 326.741 C 185.792 326.737,182.411 325.929,182.061 325.327 C 181.273 323.971,178.382 322.827,174.808 322.458 C 171.043 322.068,170.207 321.763,167.932 319.949 C 166.907 319.131,165.842 318.740,163.878 318.461 C 157.571 317.565,156.999 317.395,155.555 315.994 C 154.521 314.990,153.471 314.470,151.474 313.972 C 149.520 313.484,148.322 312.900,147.088 311.832 C 145.357 310.333,144.316 310.035,138.181 309.285 C 136.703 309.104,135.903 308.700,134.418 307.381 C 132.893 306.027,132.054 305.613,130.028 305.215 C 127.970 304.810,127.205 304.426,125.751 303.066 C 124.286 301.696,123.543 301.326,121.442 300.920 C 119.383 300.522,118.607 300.144,117.336 298.924 C 116.470 298.092,115.068 297.230,114.202 296.996 C 112.254 296.469,111.951 296.248,111.370 294.926 C 110.757 293.529,109.258 292.808,106.256 292.464 C 103.889 292.193,103.765 292.124,103.012 290.648 C 102.454 289.554,101.785 288.935,100.688 288.496 C 99.616 288.067,98.935 287.449,98.448 286.461 C 97.880 285.311,97.302 284.869,95.397 284.125 C 93.981 283.572,92.450 282.592,91.547 281.662 C 90.484 280.566,89.597 280.045,88.494 279.869 C 87.127 279.650,86.835 279.405,86.075 277.834 C 85.410 276.460,84.894 275.945,83.839 275.603 C 82.882 275.294,82.277 274.754,81.835 273.819 C 81.455 273.016,80.590 272.154,79.680 271.672 C 78.719 271.163,77.900 270.323,77.458 269.393 C 76.993 268.416,76.301 267.730,75.407 267.356 C 74.516 266.983,73.788 266.262,73.260 265.227 C 72.744 264.215,71.952 263.419,71.022 262.977 C 69.981 262.481,69.494 261.945,69.261 261.036 C 68.917 259.695,67.660 258.570,66.506 258.570 C 65.792 258.570,65.275 257.681,64.861 255.741 C 64.736 255.155,63.958 254.051,63.132 253.287 C 62.143 252.371,61.377 251.150,60.885 249.701 C 60.166 247.587,58.838 246.033,57.749 246.033 C 57.461 246.033,56.958 245.121,56.622 243.989 C 56.246 242.723,55.474 241.390,54.596 240.491 C 53.695 239.569,52.874 238.132,52.347 236.561 C 51.625 234.404,51.316 233.980,49.951 233.275 C 48.445 232.498,48.374 232.372,48.118 230.077 C 47.788 227.122,46.916 225.358,45.624 225.034 C 44.311 224.705,43.879 223.776,43.876 221.279 C 43.873 218.267,43.263 216.500,41.535 214.504 C 39.982 212.710,39.962 212.640,39.368 207.280 C 39.078 204.664,38.349 202.858,37.063 201.572 C 35.844 200.353,35.267 198.354,35.252 195.299 C 35.246 194.006,35.060 192.243,34.839 191.381 C 34.619 190.519,34.212 188.799,33.935 187.559 C 33.650 186.279,33.032 184.877,32.507 184.318 C 30.206 181.869,30.312 141.861,32.627 139.110 C 33.173 138.462,33.738 137.176,33.883 136.253 C 34.028 135.329,34.308 134.045,34.504 133.399 C 34.700 132.752,35.118 131.139,35.434 129.815 C 35.789 128.319,36.404 126.983,37.056 126.289 C 38.387 124.872,39.037 123.338,39.353 120.862 C 39.909 116.512,39.933 116.450,41.358 115.610 C 42.353 115.022,43.038 114.124,43.845 112.346 C 44.457 110.996,45.505 109.378,46.172 108.750 C 46.919 108.048,47.619 106.809,47.990 105.533 C 48.487 103.823,48.827 103.348,49.924 102.827 C 50.959 102.336,51.454 101.702,52.153 99.971 C 53.477 96.693,66.565 83.559,69.986 82.075 C 71.749 81.311,72.469 80.740,73.068 79.632 C 73.679 78.501,74.226 78.079,75.580 77.689 C 76.532 77.415,78.119 76.522,79.106 75.704 C 80.093 74.887,81.381 73.914,81.967 73.543 C 82.553 73.171,83.678 72.222,84.467 71.433 C 85.534 70.365,86.485 69.864,88.185 69.471 C 90.858 68.853,93.113 67.625,93.434 66.612 C 93.696 65.787,94.193 65.638,98.710 65.029 C 102.416 64.530,103.099 64.261,104.835 62.620 C 105.922 61.592,106.442 61.436,109.928 61.087 C 113.503 60.730,117.626 59.953,120.431 59.108 C 121.055 58.920,123.540 58.766,125.953 58.766 C 129.799 58.766,130.424 58.672,131.028 58.004 C 132.061 56.863,137.028 56.386,139.749 57.166 M118.738 176.689 C 115.602 178.376,113.614 182.658,113.614 187.721 C 113.614 191.158,118.802 195.103,123.322 195.103 C 129.053 195.103,134.250 184.616,130.558 180.504 C 129.968 179.847,121.733 175.497,121.142 175.530 C 120.988 175.538,119.906 176.060,118.738 176.689 M75.722 204.960 C 74.590 205.214,73.808 205.697,73.239 206.496 C 72.783 207.137,71.551 208.096,70.502 208.628 C 67.910 209.941,66.988 212.791,67.004 219.435 C 67.021 226.281,67.922 227.742,74.169 231.053 L 78.798 233.506 81.221 232.160 C 82.553 231.420,84.694 230.544,85.977 230.213 C 90.938 228.933,93.577 224.474,93.620 217.297 C 93.638 214.280,92.994 213.045,89.609 209.599 C 84.458 204.355,82.034 203.545,75.722 204.960 M159.060 262.998 C 153.009 266.264,152.036 267.833,152.019 274.345 C 152.002 280.903,153.087 284.163,155.729 285.490 C 156.376 285.815,157.522 286.669,158.276 287.387 C 160.827 289.819,167.536 290.391,170.264 288.411 C 172.314 286.923,176.558 282.622,177.772 280.803 C 181.058 275.879,177.171 265.378,171.517 263.906 C 170.342 263.600,168.121 262.715,166.581 261.939 C 165.041 261.164,163.732 260.537,163.673 260.547 C 163.614 260.557,161.538 261.660,159.060 262.998 M306.401 272.334 C 303.392 273.919,302.988 274.392,302.506 276.903 C 301.323 283.053,304.536 287.952,310.526 289.130 C 313.463 289.708,314.057 289.444,317.861 285.870 L 320.541 283.353 320.368 280.854 C 319.951 274.868,318.876 273.168,314.729 271.938 C 311.057 270.849,309.038 270.945,306.401 272.334 " stroke="none" fill="#c46c4c" fill-rule="evenodd"/><path id="path2" d="M124.192 55.241 C 118.067 55.482,113.379 56.262,112.201 57.236 C 111.517 57.800,105.872 59.164,102.700 59.531 C 100.113 59.830,99.666 60.013,98.331 61.316 C 97.239 62.383,96.139 62.963,94.185 63.505 C 92.508 63.970,91.082 64.661,90.326 65.375 C 88.821 66.797,88.088 67.158,85.426 67.783 C 83.848 68.153,82.822 68.723,81.496 69.963 C 80.462 70.930,78.749 71.998,77.455 72.482 C 76.219 72.944,74.726 73.727,74.137 74.221 C 73.548 74.715,72.253 75.633,71.259 76.262 C 70.266 76.890,68.767 78.067,67.929 78.877 C 67.091 79.687,65.143 81.531,63.599 82.976 C 60.051 86.297,60.552 85.797,55.161 91.408 C 52.639 94.033,49.799 96.986,48.849 97.971 C 47.629 99.237,46.874 100.510,46.273 102.316 C 45.759 103.862,44.959 105.315,44.246 105.998 C 43.599 106.618,42.651 107.836,42.141 108.705 C 41.630 109.573,40.674 110.681,40.015 111.166 C 39.253 111.726,38.668 112.618,38.409 113.614 C 38.185 114.476,37.822 115.876,37.601 116.726 C 37.372 117.608,36.533 118.965,35.642 119.892 C 34.497 121.084,34.084 121.843,34.082 122.755 C 34.079 124.576,33.363 126.851,32.227 128.650 C 30.944 130.683,30.324 133.059,29.560 138.868 C 29.221 141.445,28.526 145.200,28.015 147.213 L 27.087 150.872 28.035 152.909 C 29.272 155.565,29.261 155.651,27.424 157.643 C 26.562 158.578,25.857 159.480,25.857 159.647 C 25.857 159.815,26.562 160.717,27.424 161.652 C 29.244 163.626,29.315 164.164,28.074 166.615 C 27.102 168.534,27.151 169.381,28.527 174.535 C 28.758 175.397,29.055 177.953,29.189 180.215 C 29.535 186.057,30.464 191.275,31.730 194.488 C 32.666 196.862,33.235 199.401,34.300 205.954 C 34.412 206.643,35.085 207.903,35.795 208.753 C 36.787 209.939,37.250 211.060,37.788 213.573 C 38.520 216.989,38.947 218.050,40.529 220.381 C 41.052 221.152,41.679 222.788,41.922 224.016 C 42.639 227.648,43.049 228.614,44.246 229.499 C 44.940 230.012,45.701 231.196,46.208 232.551 C 46.664 233.769,47.631 235.493,48.357 236.383 C 49.083 237.274,50.138 239.141,50.702 240.534 C 51.266 241.926,52.146 243.513,52.658 244.060 C 53.171 244.606,54.138 246.152,54.808 247.494 C 55.478 248.837,56.457 250.217,56.984 250.562 C 57.510 250.907,58.507 252.071,59.198 253.147 C 59.889 254.224,60.878 255.383,61.395 255.722 C 61.913 256.061,62.678 257.007,63.094 257.824 C 63.511 258.640,64.483 259.790,65.254 260.378 C 66.026 260.966,67.086 262.294,67.610 263.329 C 68.767 265.613,75.129 272.009,76.893 272.662 C 78.969 273.430,79.294 273.666,80.206 275.061 C 80.686 275.795,81.268 276.572,81.500 276.787 C 81.732 277.003,82.955 278.193,84.218 279.432 C 85.481 280.671,86.722 281.685,86.975 281.685 C 87.229 281.685,88.278 282.522,89.306 283.546 C 93.545 287.765,100.706 293.151,103.474 294.203 C 104.603 294.632,106.165 295.606,106.944 296.367 C 107.766 297.169,109.339 298.094,110.690 298.569 C 112.019 299.036,113.709 300.024,114.629 300.873 C 115.871 302.017,116.843 302.496,118.861 302.956 C 120.922 303.426,121.846 303.890,123.190 305.129 C 124.566 306.397,125.383 306.797,127.386 307.186 C 129.315 307.560,130.140 307.949,131.067 308.920 C 132.716 310.649,133.573 311.036,136.405 311.332 C 138.585 311.560,139.058 311.774,140.635 313.241 C 142.193 314.693,142.705 314.928,144.838 315.172 C 146.608 315.374,147.829 315.808,149.343 316.773 C 152.469 318.766,153.874 319.335,156.690 319.746 C 159.906 320.216,161.252 320.733,162.117 321.832 C 163.032 322.996,164.251 323.604,165.669 323.604 C 167.553 323.604,172.487 324.754,173.351 325.394 C 176.512 327.737,176.871 327.914,178.462 327.914 C 181.466 327.914,185.683 329.098,187.096 330.338 C 188.713 331.758,189.807 332.078,194.183 332.409 C 198.376 332.727,201.203 333.472,203.872 334.961 C 205.911 336.099,205.878 336.093,216.748 337.299 C 219.034 337.553,221.064 338.069,222.841 338.849 C 226.696 340.541,228.916 340.775,245.446 341.224 C 271.905 341.944,287.108 341.103,292.113 338.644 C 294.452 337.495,295.680 337.183,299.735 336.710 C 304.531 336.149,304.582 336.133,306.154 334.612 C 307.345 333.459,308.344 332.926,310.182 332.464 C 311.527 332.126,313.523 331.234,314.617 330.481 C 315.712 329.728,317.584 328.804,318.778 328.427 C 320.123 328.004,321.567 327.164,322.571 326.222 C 323.462 325.385,324.948 324.354,325.872 323.932 C 326.795 323.509,328.118 322.678,328.810 322.084 C 329.502 321.491,330.703 320.623,331.479 320.155 C 333.387 319.003,335.808 316.123,336.570 314.099 C 337.100 312.691,337.546 312.260,339.508 311.263 C 342.185 309.904,344.466 307.934,345.634 305.976 C 346.084 305.221,346.855 304.163,347.348 303.624 C 347.841 303.085,348.526 301.971,348.869 301.149 C 349.213 300.326,350.167 298.916,350.989 298.015 C 352.753 296.082,353.246 295.204,354.007 292.642 C 354.319 291.592,354.984 290.239,355.485 289.637 C 356.784 288.076,357.100 287.363,358.059 283.845 C 358.528 282.125,359.432 279.931,360.068 278.971 C 361.590 276.673,361.895 275.391,362.326 269.466 C 362.613 265.514,362.858 264.220,363.518 263.152 C 364.065 262.267,364.350 261.154,364.353 259.895 C 364.355 258.843,364.620 257.117,364.941 256.059 C 366.033 252.459,365.774 236.045,364.608 234.947 C 362.436 232.902,362.165 229.538,364.075 228.335 C 364.362 228.155,364.293 227.598,363.857 226.572 C 363.506 225.748,363.118 224.708,362.996 224.261 C 362.753 223.376,361.617 213.068,361.610 211.685 C 361.608 211.217,360.956 209.983,360.162 208.943 C 358.631 206.940,357.942 204.720,357.464 200.262 C 357.223 198.007,357.013 197.492,355.923 196.476 C 354.353 195.012,353.982 194.289,353.410 191.577 C 353.053 189.881,352.589 189.047,351.232 187.659 C 350.190 186.594,349.252 185.138,348.863 183.981 C 348.508 182.927,347.528 181.192,346.685 180.126 C 345.842 179.059,345.152 178.020,345.152 177.816 C 345.152 177.612,343.412 175.733,341.285 173.640 C 339.159 171.546,336.956 169.089,336.390 168.180 C 335.825 167.270,334.788 166.229,334.086 165.867 C 333.385 165.505,332.194 164.554,331.440 163.753 C 329.659 161.863,323.750 157.894,322.278 157.600 C 321.648 157.474,320.259 156.515,319.191 155.469 C 318.123 154.424,316.784 153.466,316.215 153.341 C 312.087 152.433,310.302 151.853,309.109 151.031 C 307.045 149.608,305.231 148.961,302.432 148.649 C 299.656 148.340,297.142 147.578,296.200 146.758 C 294.070 144.906,287.282 144.609,254.261 144.923 C 247.822 144.985,247.210 144.620,247.206 140.723 C 247.204 137.908,246.646 135.881,245.491 134.488 C 244.485 133.274,243.579 130.946,242.867 127.739 C 242.503 126.104,242.005 125.212,240.736 123.925 C 239.824 123.001,238.603 121.272,238.022 120.084 C 237.441 118.896,236.798 117.924,236.595 117.924 C 236.391 117.924,235.605 116.618,234.847 115.022 C 233.985 113.206,232.978 111.744,232.154 111.116 C 231.431 110.565,228.124 107.405,224.805 104.095 C 219.378 98.683,218.575 98.028,216.834 97.589 C 214.408 96.978,214.063 96.686,213.086 94.416 C 212.142 92.220,209.575 89.596,207.544 88.751 C 206.659 88.382,205.661 87.511,205.025 86.550 C 204.446 85.675,203.326 84.629,202.536 84.226 C 201.746 83.823,200.813 83.056,200.463 82.522 C 200.114 81.989,199.145 81.169,198.311 80.700 C 197.478 80.231,196.485 79.323,196.107 78.682 C 195.728 78.041,194.556 76.986,193.502 76.338 C 192.449 75.690,191.249 74.688,190.835 74.112 C 190.422 73.537,188.950 72.494,187.563 71.795 C 186.177 71.096,184.736 70.185,184.361 69.771 C 183.986 69.357,182.680 68.618,181.458 68.130 C 178.940 67.123,177.700 66.405,176.319 65.151 C 175.269 64.200,174.201 63.718,171.754 63.095 C 170.870 62.869,169.548 62.252,168.815 61.722 C 166.664 60.167,165.075 59.591,161.798 59.180 C 160.102 58.968,158.042 58.448,157.222 58.025 C 153.485 56.098,152.897 55.924,149.657 55.786 C 147.826 55.707,145.036 55.464,143.458 55.246 C 140.420 54.825,134.776 54.823,124.192 55.241 M142.842 56.777 C 145.018 57.192,147.485 57.820,148.326 58.172 C 149.166 58.525,152.293 59.158,155.275 59.579 C 162.604 60.615,164.181 61.006,165.328 62.071 C 166.753 63.393,167.623 63.758,170.577 64.273 C 172.898 64.677,173.425 64.939,174.858 66.405 C 175.939 67.510,177.290 68.367,178.844 68.932 C 180.137 69.403,181.724 70.286,182.370 70.895 C 183.017 71.504,184.276 72.367,185.168 72.814 C 186.061 73.261,187.435 74.234,188.222 74.976 C 189.530 76.209,192.624 77.963,193.493 77.963 C 193.689 77.963,194.201 78.557,194.629 79.283 C 195.058 80.009,195.889 80.935,196.477 81.340 C 197.064 81.745,198.186 82.699,198.969 83.459 C 199.751 84.219,200.952 85.073,201.637 85.356 C 202.321 85.638,203.335 86.555,203.889 87.392 C 204.442 88.229,205.381 89.214,205.974 89.580 C 207.106 90.281,209.536 92.473,212.908 95.837 C 214.015 96.941,215.687 98.235,216.623 98.713 C 218.323 99.580,222.842 103.862,224.470 106.148 C 224.944 106.813,225.829 107.615,226.438 107.930 C 227.046 108.245,227.949 109.157,228.444 109.958 C 228.939 110.759,230.102 112.268,231.029 113.311 C 231.955 114.354,233.176 116.127,233.741 117.251 C 234.307 118.375,235.256 119.736,235.851 120.274 C 236.446 120.813,237.217 122.006,237.565 122.926 C 238.142 124.452,239.100 126.081,240.771 128.378 C 241.134 128.877,241.527 130.595,241.711 132.492 C 241.941 134.857,242.376 136.500,243.296 138.492 C 243.994 140.000,244.806 142.046,245.101 143.038 C 246.644 148.223,250.238 149.631,256.249 147.405 L 259.158 146.327 272.478 146.329 L 285.798 146.331 288.345 147.361 C 289.745 147.927,291.861 148.512,293.046 148.660 C 300.653 149.612,304.599 150.478,305.571 151.409 C 306.719 152.508,309.077 153.574,310.369 153.577 C 312.147 153.581,314.190 154.411,315.844 155.800 C 316.772 156.579,318.566 157.708,319.830 158.309 C 321.094 158.909,322.505 159.744,322.964 160.164 C 323.424 160.584,324.380 161.220,325.090 161.579 C 325.799 161.937,327.350 163.110,328.536 164.184 C 329.723 165.259,331.624 166.549,332.761 167.052 C 334.289 167.728,334.960 168.287,335.337 169.196 C 335.617 169.872,336.402 170.913,337.083 171.511 C 337.763 172.108,338.751 173.297,339.279 174.153 C 339.807 175.010,341.156 176.709,342.277 177.930 C 343.397 179.151,344.611 180.738,344.975 181.456 C 345.338 182.174,345.958 183.116,346.353 183.549 C 346.748 183.983,347.506 185.322,348.038 186.525 C 348.571 187.729,349.712 189.529,350.575 190.527 C 351.438 191.524,352.235 192.653,352.347 193.035 C 352.458 193.418,352.750 194.525,352.996 195.495 C 353.242 196.464,354.022 198.315,354.730 199.608 C 355.873 201.697,356.730 204.533,357.512 208.815 C 357.650 209.569,358.261 211.084,358.869 212.180 C 360.733 215.541,360.935 216.794,361.980 231.538 C 362.187 234.468,362.647 237.674,363.010 238.727 C 363.630 240.525,363.627 240.741,362.947 242.743 C 362.250 244.793,362.250 244.923,362.944 246.965 C 363.605 248.910,363.614 249.218,363.060 250.981 C 362.070 254.128,361.987 254.772,361.409 263.798 C 360.817 273.031,360.514 274.752,359.216 276.241 C 357.919 277.728,357.417 278.971,357.117 281.438 C 356.747 284.472,355.922 286.730,354.725 287.980 C 354.189 288.539,353.228 290.475,352.589 292.282 C 351.745 294.669,351.101 295.822,350.237 296.498 C 349.583 297.010,348.717 298.074,348.313 298.862 C 347.909 299.649,347.104 300.735,346.523 301.273 C 345.942 301.812,345.116 302.938,344.686 303.777 C 343.744 305.615,330.180 319.295,329.300 319.295 C 328.959 319.295,327.935 319.976,327.024 320.809 C 326.113 321.643,324.810 322.609,324.128 322.956 C 323.447 323.304,322.478 324.101,321.974 324.727 C 320.918 326.038,319.444 326.855,316.944 327.511 C 315.975 327.766,314.518 328.499,313.708 329.141 C 311.973 330.515,310.483 331.163,307.542 331.824 C 306.357 332.091,304.291 332.899,302.953 333.622 C 300.507 334.941,297.702 335.614,290.695 336.560 C 288.468 336.861,286.781 337.345,285.602 338.022 C 280.471 340.967,233.873 340.956,229.383 338.008 C 227.792 336.964,225.703 336.602,217.434 335.941 C 212.894 335.578,210.363 334.987,208.227 333.790 C 206.220 332.666,203.754 332.047,199.608 331.627 C 195.467 331.208,193.019 330.592,191.000 329.462 C 189.873 328.832,187.167 327.944,184.676 327.387 C 182.043 326.798,179.489 325.947,178.212 325.232 C 176.920 324.509,174.367 323.663,171.626 323.050 C 168.808 322.420,166.632 321.693,165.750 321.086 C 163.863 319.788,162.913 319.466,158.677 318.688 C 155.795 318.158,154.794 317.790,153.755 316.878 C 153.038 316.248,150.985 315.205,149.193 314.560 C 147.401 313.915,144.966 312.881,143.781 312.263 C 141.582 311.116,140.221 310.689,136.237 309.894 C 134.496 309.547,133.690 309.134,132.699 308.084 C 131.696 307.021,130.788 306.563,128.532 305.982 C 126.346 305.420,125.304 304.908,124.234 303.869 C 123.187 302.853,122.063 302.288,119.902 301.692 C 117.816 301.118,116.587 300.514,115.593 299.575 C 114.828 298.852,113.595 298.022,112.853 297.730 C 112.111 297.437,110.667 296.455,109.644 295.546 C 108.252 294.310,107.242 293.782,105.625 293.447 C 103.909 293.090,103.066 292.621,101.523 291.161 C 97.482 287.339,95.198 285.558,93.116 284.605 C 91.934 284.063,90.690 283.198,90.352 282.683 C 90.014 282.167,88.883 281.280,87.838 280.712 C 86.794 280.143,85.630 279.156,85.253 278.517 C 84.876 277.879,84.096 277.061,83.518 276.699 C 82.941 276.338,81.565 275.152,80.460 274.064 C 79.356 272.976,76.382 270.059,73.850 267.581 C 71.319 265.103,68.835 262.428,68.331 261.637 C 67.827 260.846,66.881 259.883,66.229 259.498 C 65.577 259.113,64.691 258.049,64.261 257.133 C 63.830 256.217,62.962 255.086,62.332 254.620 C 61.702 254.154,60.885 252.983,60.516 252.017 C 60.147 251.051,59.048 249.364,58.075 248.267 C 57.101 247.171,55.988 245.558,55.601 244.683 C 55.214 243.808,54.362 242.580,53.708 241.954 C 53.006 241.281,52.193 239.832,51.721 238.416 C 51.143 236.678,50.459 235.580,49.242 234.434 C 47.882 233.155,47.463 232.419,47.054 230.588 C 46.712 229.063,46.130 227.857,45.269 226.895 C 43.540 224.960,43.186 224.196,42.868 221.713 C 42.593 219.568,41.776 217.662,40.361 215.867 C 39.930 215.320,39.215 213.155,38.743 210.970 C 38.255 208.715,37.340 205.971,36.588 204.505 C 35.736 202.849,35.065 200.727,34.668 198.433 C 33.720 192.967,33.328 191.460,32.579 190.402 C 31.207 188.466,29.704 174.718,29.816 165.132 C 29.837 163.408,29.666 161.520,29.438 160.937 C 29.161 160.228,29.138 158.797,29.371 156.627 C 29.562 154.841,29.838 150.999,29.984 148.090 C 30.130 145.181,30.580 141.214,30.985 139.275 C 31.390 137.336,31.724 135.411,31.727 134.997 C 31.731 134.583,31.997 133.953,32.318 133.598 C 32.639 133.243,33.513 131.179,34.258 129.011 C 35.004 126.843,36.227 123.947,36.976 122.574 C 37.725 121.201,38.462 119.373,38.614 118.511 C 38.963 116.534,39.573 115.341,41.113 113.630 C 41.784 112.884,42.791 111.305,43.351 110.121 C 43.911 108.937,44.806 107.625,45.339 107.206 C 45.872 106.786,46.645 105.657,47.057 104.697 C 47.468 103.736,48.489 102.173,49.325 101.224 C 50.161 100.274,51.299 98.538,51.854 97.366 C 52.519 95.961,53.269 95.024,54.054 94.619 C 54.709 94.280,55.683 93.308,56.219 92.458 C 56.756 91.609,57.737 90.633,58.400 90.290 C 59.062 89.948,59.951 89.081,60.374 88.364 C 60.797 87.647,61.837 86.601,62.686 86.039 C 63.535 85.478,64.501 84.492,64.833 83.850 C 65.223 83.096,66.176 82.332,67.522 81.696 C 68.668 81.153,70.462 79.901,71.508 78.914 C 72.553 77.926,74.245 76.694,75.266 76.177 C 76.288 75.659,77.230 75.064,77.359 74.854 C 77.489 74.644,78.472 73.995,79.544 73.412 C 80.615 72.829,81.920 71.791,82.442 71.106 C 83.126 70.210,84.033 69.669,85.673 69.179 C 89.312 68.092,90.090 67.728,90.856 66.753 C 91.678 65.709,92.565 65.324,96.739 64.206 C 98.371 63.769,100.588 62.910,101.665 62.296 C 103.882 61.034,107.130 60.132,110.872 59.739 C 112.519 59.567,114.248 59.050,115.769 58.275 C 118.053 57.111,118.321 57.070,125.275 56.807 C 129.210 56.657,132.545 56.420,132.686 56.280 C 133.204 55.761,138.999 56.045,142.842 56.777 " stroke="none" fill="#744434" fill-rule="evenodd"/><path id="path3" d="M0.000 195.886 L 0.000 391.773 200.000 391.773 L 400.000 391.773 400.000 195.886 L 400.000 0.000 200.000 0.000 L 0.000 0.000 0.000 195.886 M150.441 55.291 C 153.207 55.785,155.370 56.395,156.045 56.871 C 156.650 57.297,158.236 57.823,159.571 58.039 C 165.017 58.919,167.046 59.542,168.253 60.705 C 169.046 61.469,170.401 62.115,172.321 62.645 C 174.467 63.237,175.614 63.820,176.826 64.936 C 177.836 65.867,179.312 66.704,180.722 67.147 C 182.340 67.656,183.295 68.242,184.052 69.191 C 184.635 69.923,185.730 70.723,186.484 70.969 C 188.107 71.498,191.185 73.529,191.185 74.071 C 191.185 74.279,192.193 74.933,193.424 75.524 C 194.815 76.191,196.007 77.107,196.571 77.945 C 197.071 78.686,198.135 79.660,198.936 80.109 C 199.736 80.558,200.743 81.462,201.172 82.117 C 201.601 82.771,202.602 83.585,203.396 83.923 C 204.375 84.342,205.095 85.042,205.636 86.102 C 206.160 87.129,206.788 87.753,207.471 87.925 C 208.041 88.068,209.415 89.016,210.523 90.032 C 211.630 91.048,213.330 92.489,214.300 93.235 C 215.269 93.981,216.360 94.963,216.724 95.416 C 217.087 95.870,218.145 96.646,219.074 97.142 C 220.004 97.637,221.256 98.737,221.857 99.587 C 222.458 100.437,223.463 101.426,224.090 101.786 C 224.718 102.146,225.586 103.073,226.020 103.845 C 226.454 104.617,227.418 105.577,228.162 105.977 C 228.907 106.378,229.916 107.423,230.405 108.299 C 230.894 109.175,232.030 110.611,232.929 111.491 C 233.975 112.513,234.806 113.817,235.236 115.109 C 235.680 116.446,236.310 117.416,237.101 117.979 C 237.760 118.448,238.698 119.740,239.193 120.860 C 239.687 121.977,240.619 123.419,241.264 124.064 C 241.909 124.709,242.617 125.927,242.837 126.771 C 243.058 127.615,243.532 129.489,243.891 130.935 C 244.251 132.381,244.803 133.778,245.119 134.040 C 246.224 134.957,246.937 136.942,247.240 139.944 C 247.780 145.308,248.143 145.454,257.786 144.194 C 268.705 142.767,293.814 144.257,296.865 146.512 C 297.742 147.160,299.090 147.527,301.975 147.902 C 306.060 148.433,306.727 148.671,309.223 150.479 C 310.054 151.080,311.734 151.778,312.957 152.028 C 316.103 152.673,317.416 153.290,318.985 154.858 C 319.869 155.743,321.121 156.451,322.516 156.856 C 323.705 157.202,324.912 157.768,325.199 158.114 C 325.487 158.460,326.995 159.702,328.553 160.874 C 330.110 162.046,331.448 163.197,331.526 163.433 C 331.605 163.669,332.705 164.412,333.972 165.085 C 335.580 165.938,336.523 166.754,337.098 167.785 C 337.551 168.598,338.462 169.592,339.124 169.995 C 339.785 170.397,340.712 171.465,341.183 172.370 C 341.654 173.274,342.916 174.904,343.988 175.992 C 345.059 177.081,345.935 178.123,345.935 178.309 C 345.935 178.494,346.528 179.308,347.253 180.116 C 348.694 181.724,349.600 183.340,350.004 185.025 C 350.147 185.623,350.852 186.768,351.569 187.571 C 353.234 189.433,353.697 190.334,354.395 193.074 C 354.736 194.412,355.329 195.611,355.883 196.082 C 357.252 197.247,357.604 198.152,358.501 202.811 C 359.058 205.700,359.606 207.431,360.222 208.241 C 361.619 210.078,362.415 212.935,362.786 217.434 C 363.249 223.058,363.568 224.840,364.404 226.454 C 365.279 228.143,365.916 231.350,365.916 234.066 C 365.916 235.182,366.101 237.097,366.327 238.322 C 366.610 239.850,366.614 241.224,366.341 242.703 C 366.070 244.169,366.071 245.554,366.345 247.034 C 366.675 248.820,366.602 249.952,365.940 253.343 C 365.496 255.616,365.132 258.492,365.132 259.733 C 365.132 261.432,364.929 262.249,364.311 263.035 C 363.668 263.852,363.407 264.993,363.111 268.278 C 362.903 270.588,362.643 273.402,362.533 274.532 C 362.387 276.046,361.940 277.178,360.833 278.841 C 359.652 280.617,359.193 281.842,358.681 284.594 C 357.941 288.566,357.356 289.918,355.989 290.813 C 355.331 291.245,354.883 292.085,354.548 293.516 C 353.781 296.799,353.137 298.042,351.861 298.701 C 351.111 299.089,350.385 299.967,349.893 301.078 C 349.397 302.199,348.623 303.130,347.767 303.635 C 346.885 304.155,346.342 304.822,346.193 305.565 C 346.069 306.190,345.200 307.463,344.263 308.395 C 343.325 309.326,341.831 311.060,340.942 312.247 C 340.052 313.435,338.571 314.933,337.650 315.577 C 336.729 316.221,335.243 317.497,334.347 318.413 C 333.451 319.328,331.932 320.425,330.972 320.849 C 329.934 321.308,329.039 322.032,328.765 322.633 C 328.504 323.205,327.665 323.909,326.836 324.251 C 326.028 324.585,324.574 325.703,323.604 326.735 C 322.102 328.336,321.494 328.688,319.491 329.117 C 317.638 329.514,316.850 329.928,315.769 331.072 C 314.382 332.540,314.431 332.523,308.601 333.649 C 307.999 333.765,307.030 334.309,306.447 334.857 C 304.867 336.342,303.176 336.919,298.673 337.510 C 296.036 337.857,293.883 338.391,292.552 339.030 C 288.657 340.900,284.054 341.554,271.618 342.003 C 259.335 342.448,232.757 341.922,229.775 341.175 C 228.913 340.959,227.150 340.605,225.857 340.389 C 224.564 340.172,222.890 339.637,222.136 339.199 C 221.127 338.613,219.118 338.216,214.497 337.690 C 207.860 336.933,205.900 336.423,203.466 334.816 C 202.204 333.983,201.196 333.751,197.258 333.388 C 191.702 332.875,189.133 332.226,187.041 330.805 C 186.139 330.192,184.372 329.542,182.762 329.231 C 176.652 328.050,175.901 327.825,174.372 326.717 C 173.174 325.850,171.653 325.326,168.222 324.599 C 164.440 323.798,163.371 323.405,161.942 322.292 C 160.628 321.268,159.688 320.887,157.975 320.684 C 154.332 320.252,152.700 319.698,150.850 318.269 C 149.890 317.527,148.127 316.655,146.933 316.332 C 145.738 316.009,144.077 315.561,143.243 315.335 C 142.409 315.110,141.303 314.502,140.786 313.985 C 139.450 312.649,138.796 312.378,136.141 312.058 C 132.978 311.677,131.414 310.966,130.700 309.586 C 130.192 308.603,129.743 308.364,127.638 307.954 C 124.395 307.323,122.712 306.497,122.047 305.211 C 121.589 304.323,121.031 304.057,118.441 303.489 C 115.148 302.767,114.567 302.449,113.502 300.784 C 113.123 300.191,112.508 299.705,112.136 299.702 C 111.173 299.697,107.509 297.525,106.831 296.558 C 106.508 296.097,105.226 295.431,103.872 295.021 C 102.353 294.561,100.801 293.715,99.615 292.702 C 94.672 288.480,92.453 286.812,90.818 286.089 C 89.608 285.553,88.868 284.917,88.507 284.101 C 88.132 283.254,87.474 282.708,86.273 282.250 C 85.016 281.770,84.397 281.237,83.911 280.215 C 83.446 279.240,82.758 278.620,81.580 278.114 C 80.519 277.659,79.614 276.899,79.103 276.032 C 78.660 275.282,77.954 274.558,77.533 274.425 C 76.222 274.009,66.998 264.381,66.664 263.079 C 66.450 262.245,65.930 261.695,64.886 261.198 C 63.744 260.655,63.227 260.056,62.603 258.553 C 62.159 257.485,61.585 256.611,61.328 256.611 C 60.598 256.611,59.327 255.022,58.458 253.021 C 58.021 252.016,57.295 250.996,56.844 250.754 C 55.908 250.254,53.682 246.582,53.677 245.530 C 53.675 245.146,53.064 244.472,52.319 244.033 C 51.114 243.322,49.363 240.117,49.363 238.622 C 49.363 238.441,48.676 237.584,47.836 236.718 C 46.770 235.620,46.112 234.450,45.660 232.851 C 45.303 231.590,44.615 230.206,44.130 229.775 C 42.697 228.501,41.935 226.995,41.167 223.923 C 40.700 222.056,40.015 220.492,39.239 219.524 C 38.320 218.376,37.834 217.097,37.180 214.104 C 36.710 211.949,35.981 209.745,35.561 209.207 C 34.344 207.647,33.812 206.042,32.879 201.104 C 32.231 197.679,31.653 195.837,30.655 194.021 C 29.311 191.576,29.304 191.536,28.773 183.443 C 28.096 173.135,27.873 171.276,27.140 169.859 C 26.723 169.053,26.605 168.042,26.747 166.484 C 26.890 164.899,26.739 163.654,26.220 162.150 C 25.052 158.769,25.517 152.574,27.180 149.359 C 27.752 148.252,28.300 144.260,28.971 136.312 C 29.293 132.499,29.868 130.832,31.559 128.805 C 32.055 128.211,32.732 126.496,33.087 124.935 C 33.823 121.702,34.579 120.065,35.585 119.526 C 36.257 119.167,36.573 118.376,37.596 114.492 C 37.850 113.529,38.608 112.251,39.389 111.470 C 40.133 110.726,41.168 109.153,41.689 107.975 C 42.342 106.499,43.011 105.640,43.845 105.208 C 44.510 104.865,45.056 104.367,45.058 104.104 C 45.066 103.021,47.031 99.501,48.204 98.465 C 48.896 97.855,49.783 96.615,50.174 95.709 C 50.642 94.629,51.438 93.715,52.488 93.052 C 53.369 92.496,54.378 91.436,54.731 90.696 C 55.096 89.930,55.917 89.092,56.639 88.750 C 57.335 88.419,58.271 87.528,58.719 86.769 C 59.167 86.011,60.168 85.015,60.943 84.558 C 61.719 84.100,62.789 83.036,63.321 82.193 C 63.961 81.180,64.873 80.410,66.016 79.921 C 66.966 79.513,67.972 78.813,68.250 78.365 C 68.528 77.917,69.814 76.812,71.107 75.908 C 72.400 75.005,73.898 73.861,74.437 73.365 C 74.976 72.869,76.298 72.138,77.375 71.739 C 78.690 71.253,79.632 70.579,80.241 69.689 C 81.368 68.043,82.240 67.575,85.205 67.027 C 87.191 66.660,87.755 66.356,88.925 65.022 C 90.187 63.584,90.599 63.389,93.787 62.723 C 95.840 62.294,97.405 61.755,97.598 61.411 C 98.287 60.180,100.108 59.477,105.068 58.527 C 108.923 57.788,110.895 57.186,112.985 56.107 L 115.769 54.671 124.192 54.417 C 136.434 54.047,145.095 54.336,150.441 55.291 " stroke="none" fill="#0c0c0c" fill-rule="evenodd"/><path id="path4" d="M124.192 54.416 L 115.769 54.671 112.985 56.107 C 110.895 57.186,108.923 57.788,105.068 58.527 C 100.108 59.477,98.287 60.180,97.598 61.411 C 97.405 61.755,95.840 62.294,93.787 62.723 C 90.599 63.389,90.187 63.584,88.925 65.022 C 87.755 66.356,87.191 66.660,85.205 67.027 C 82.240 67.575,81.368 68.043,80.241 69.689 C 79.632 70.579,78.690 71.253,77.375 71.739 C 76.298 72.138,74.976 72.871,74.437 73.369 C 73.898 73.867,72.620 74.848,71.596 75.550 C 70.573 76.251,69.736 76.911,69.736 77.016 C 69.736 77.332,71.035 76.538,73.286 74.846 C 74.458 73.965,76.380 72.884,77.559 72.443 C 78.751 71.997,80.497 70.897,81.496 69.963 C 82.822 68.723,83.848 68.153,85.426 67.783 C 88.088 67.158,88.821 66.797,90.326 65.375 C 91.082 64.661,92.508 63.970,94.185 63.505 C 96.141 62.963,97.239 62.383,98.334 61.313 C 99.650 60.028,100.136 59.823,102.507 59.552 C 106.025 59.150,110.111 58.170,112.164 57.236 C 116.238 55.381,140.179 54.091,145.544 55.437 C 146.405 55.654,148.080 55.742,149.265 55.633 L 151.420 55.436 148.482 54.956 C 144.604 54.322,134.616 54.100,124.192 54.416 M154.750 56.798 C 157.756 58.413,158.986 58.826,161.874 59.189 C 165.078 59.592,166.674 60.174,168.815 61.722 C 169.548 62.252,170.870 62.869,171.754 63.095 C 174.281 63.739,175.223 64.189,176.633 65.427 C 177.356 66.062,178.677 66.894,179.567 67.277 C 180.457 67.660,181.953 68.353,182.890 68.818 L 184.595 69.664 183.728 68.742 C 183.251 68.234,181.869 67.508,180.657 67.127 C 179.311 66.704,177.819 65.851,176.826 64.936 C 175.614 63.820,174.467 63.237,172.321 62.645 C 170.401 62.115,169.046 61.469,168.253 60.705 C 167.045 59.541,165.024 58.921,159.542 58.033 C 158.178 57.812,156.629 57.277,156.061 56.829 C 155.497 56.386,154.663 56.032,154.208 56.042 C 153.544 56.057,153.653 56.208,154.750 56.798 M186.484 71.135 C 186.484 71.219,187.233 71.653,188.149 72.100 C 189.759 72.887,189.782 72.888,188.834 72.129 C 187.923 71.399,186.484 70.791,186.484 71.135 M190.764 73.917 C 191.217 74.600,192.449 75.690,193.502 76.338 C 194.556 76.986,195.728 78.041,196.107 78.682 C 196.485 79.323,197.478 80.231,198.311 80.700 C 199.145 81.169,200.114 81.989,200.463 82.522 C 200.813 83.056,201.746 83.823,202.536 84.226 C 203.326 84.629,204.446 85.675,205.025 86.550 C 205.661 87.511,206.659 88.382,207.544 88.751 C 209.575 89.596,212.142 92.220,213.086 94.416 C 214.063 96.686,214.408 96.978,216.834 97.589 C 218.575 98.028,219.378 98.683,224.805 104.095 C 228.124 107.405,231.431 110.565,232.155 111.117 C 232.879 111.669,233.925 113.030,234.479 114.141 C 235.033 115.252,235.371 115.720,235.230 115.181 C 234.841 113.693,233.518 111.687,232.473 111.002 C 231.958 110.665,231.088 109.564,230.539 108.555 C 229.934 107.443,229.001 106.429,228.174 105.984 C 227.423 105.580,226.454 104.617,226.020 103.845 C 225.586 103.073,224.718 102.146,224.090 101.786 C 223.463 101.426,222.458 100.437,221.857 99.587 C 221.256 98.737,220.004 97.637,219.074 97.142 C 218.145 96.646,217.087 95.870,216.724 95.416 C 216.360 94.963,215.269 93.981,214.300 93.235 C 213.330 92.489,211.630 91.048,210.523 90.032 C 209.415 89.016,208.041 88.068,207.471 87.925 C 206.788 87.753,206.160 87.129,205.636 86.102 C 205.095 85.042,204.375 84.342,203.396 83.923 C 202.602 83.585,201.601 82.771,201.172 82.117 C 200.743 81.462,199.736 80.558,198.936 80.109 C 198.135 79.660,197.070 78.685,196.570 77.944 C 196.043 77.161,194.817 76.183,193.651 75.614 C 192.545 75.074,191.258 74.192,190.791 73.653 L 189.942 72.674 190.764 73.917 M67.953 78.779 C 67.808 79.012,66.925 79.531,65.989 79.932 C 64.873 80.410,63.956 81.188,63.321 82.193 C 62.789 83.036,61.719 84.100,60.943 84.558 C 60.168 85.015,59.167 86.011,58.719 86.769 C 58.271 87.528,57.335 88.419,56.639 88.750 C 55.917 89.092,55.096 89.930,54.731 90.696 C 54.378 91.436,53.365 92.498,52.480 93.057 C 51.475 93.692,50.647 94.616,50.274 95.518 C 49.946 96.313,49.474 97.238,49.226 97.573 C 48.979 97.909,49.216 97.683,49.755 97.071 C 50.607 96.104,58.823 87.546,60.269 86.119 C 62.198 84.216,66.382 80.334,67.463 79.444 C 68.174 78.858,68.634 78.373,68.485 78.366 C 68.337 78.360,68.097 78.545,67.953 78.779 M46.019 101.567 C 45.492 102.698,45.060 103.827,45.058 104.075 C 45.056 104.323,44.479 104.865,43.776 105.280 C 42.869 105.815,42.197 106.734,41.455 108.453 C 40.230 111.291,40.328 111.509,41.792 109.207 C 42.375 108.291,43.424 106.925,44.124 106.170 C 45.181 105.032,47.683 99.510,47.142 99.510 C 47.051 99.510,46.546 100.436,46.019 101.567 M37.786 113.797 C 37.474 114.545,37.218 115.493,37.218 115.904 C 37.218 116.316,36.948 117.335,36.618 118.170 C 36.073 119.547,36.074 119.615,36.630 118.911 C 36.966 118.484,37.425 117.426,37.650 116.560 C 37.874 115.694,38.205 114.412,38.385 113.712 C 38.814 112.042,38.501 112.087,37.786 113.797 M237.024 117.974 C 237.027 118.252,238.857 121.728,239.435 122.552 C 239.753 123.007,240.531 123.756,241.163 124.216 L 242.311 125.052 241.240 124.058 C 240.650 123.511,239.753 122.127,239.246 120.983 C 238.510 119.322,237.017 117.299,237.024 117.974 M33.162 124.684 C 32.758 126.439,32.084 128.177,31.566 128.798 C 29.420 131.368,29.189 132.413,28.421 142.997 C 28.136 146.936,28.776 145.004,29.365 140.152 C 30.068 134.359,30.945 130.792,32.157 128.801 C 33.414 126.736,34.228 123.997,34.007 122.577 C 33.916 121.992,33.601 122.777,33.162 124.684 M258.374 144.019 C 257.728 144.107,256.446 144.277,255.526 144.396 C 253.272 144.690,253.745 145.252,256.104 145.083 C 262.561 144.621,282.595 144.532,285.479 144.953 C 287.261 145.213,289.262 145.288,289.984 145.121 L 291.283 144.821 289.912 144.456 C 288.559 144.096,260.655 143.709,258.374 144.019 M294.417 145.822 C 295.064 146.048,295.866 146.470,296.200 146.760 C 297.144 147.578,299.659 148.341,302.432 148.649 C 305.238 148.962,307.047 149.609,309.122 151.041 C 309.884 151.567,311.735 152.279,313.236 152.624 C 314.737 152.969,316.405 153.415,316.944 153.616 C 317.860 153.956,317.876 153.942,317.183 153.400 C 316.776 153.081,315.148 152.532,313.565 152.180 C 311.857 151.800,310.084 151.103,309.201 150.463 C 306.731 148.674,306.052 148.432,302.008 147.906 C 298.987 147.513,297.792 147.172,296.640 146.374 C 295.825 145.810,294.727 145.362,294.200 145.379 C 293.306 145.408,293.320 145.437,294.417 145.822 M26.443 151.322 C 25.371 154.875,25.255 159.284,26.160 161.998 C 26.725 163.692,26.890 164.965,26.748 166.556 C 26.627 167.916,26.729 169.044,27.015 169.494 C 27.445 170.174,27.465 170.165,27.297 169.365 C 27.198 168.892,27.539 167.673,28.054 166.655 C 29.316 164.162,29.249 163.632,27.424 161.652 C 26.562 160.717,25.857 159.815,25.857 159.647 C 25.857 159.480,26.562 158.578,27.424 157.643 C 29.260 155.651,29.272 155.565,28.038 152.915 C 27.516 151.793,27.187 150.522,27.304 150.075 C 27.762 148.322,27.025 149.389,26.443 151.322 M318.482 154.636 C 319.028 155.731,321.138 157.316,322.466 157.629 C 323.025 157.761,324.964 158.854,326.775 160.059 C 328.587 161.264,329.540 161.793,328.893 161.234 C 325.278 158.111,324.207 157.393,322.149 156.714 C 320.777 156.262,319.521 155.534,318.966 154.869 C 318.283 154.050,318.160 153.991,318.482 154.636 M331.440 163.953 C 331.440 164.068,332.407 164.781,333.589 165.537 C 334.771 166.293,336.013 167.444,336.350 168.095 C 336.686 168.746,338.199 170.549,339.713 172.102 L 342.464 174.927 341.392 172.825 C 340.784 171.632,339.802 170.407,339.121 169.993 C 338.461 169.592,337.551 168.598,337.098 167.785 C 336.384 166.504,331.440 163.155,331.440 163.953 M28.255 174.927 C 28.137 181.968,29.354 191.655,30.653 194.019 C 31.660 195.850,32.229 197.671,32.888 201.176 C 33.375 203.761,33.934 206.141,34.130 206.464 C 34.389 206.890,34.438 206.782,34.309 206.072 C 34.211 205.534,33.838 203.330,33.479 201.175 C 33.121 199.021,32.335 196.011,31.733 194.488 C 30.458 191.262,29.533 186.060,29.177 180.120 C 29.038 177.805,28.779 175.425,28.600 174.831 L 28.275 173.751 28.255 174.927 M345.007 177.669 C 345.384 178.315,346.262 179.562,346.958 180.440 C 347.655 181.317,348.515 182.923,348.870 184.009 C 349.311 185.356,350.091 186.528,351.330 187.702 L 353.145 189.422 351.705 187.767 C 350.913 186.857,350.147 185.623,350.004 185.025 C 349.619 183.418,348.724 181.770,347.351 180.133 C 346.680 179.334,345.724 178.188,345.227 177.587 L 344.323 176.494 345.007 177.669 M353.217 190.597 C 353.808 193.487,354.219 194.688,354.853 195.378 C 355.228 195.786,355.408 195.924,355.255 195.687 C 355.101 195.449,354.715 194.253,354.396 193.030 C 353.741 190.512,352.804 188.581,353.217 190.597 M357.490 200.517 C 357.958 204.630,358.673 207.051,359.861 208.539 C 361.264 210.298,361.659 210.131,360.306 208.351 C 359.592 207.413,359.089 205.861,358.492 202.764 C 357.559 197.915,357.070 196.818,357.490 200.517 M34.476 207.468 C 34.476 207.629,34.891 208.307,35.398 208.974 C 35.981 209.740,36.636 211.628,37.178 214.104 C 37.832 217.094,38.321 218.377,39.239 219.524 C 40.027 220.507,40.702 222.062,41.191 224.019 C 41.602 225.665,42.131 227.193,42.365 227.414 C 42.667 227.698,42.729 227.587,42.578 227.032 C 42.461 226.601,42.166 225.244,41.923 224.016 C 41.680 222.788,41.052 221.152,40.529 220.381 C 38.947 218.050,38.520 216.989,37.788 213.573 C 37.196 210.805,34.476 205.793,34.476 207.468 M361.657 211.753 C 361.600 212.813,362.716 223.242,362.996 224.261 C 363.118 224.708,363.506 225.748,363.857 226.572 C 364.293 227.598,364.362 228.155,364.075 228.335 C 362.165 229.538,362.436 232.902,364.608 234.947 C 365.516 235.803,365.524 235.888,365.558 245.133 C 365.581 251.548,365.706 254.090,365.958 253.281 C 366.324 252.110,366.414 250.355,366.388 244.956 C 366.381 243.394,366.387 241.454,366.403 240.646 C 366.502 235.465,365.328 227.815,364.132 225.857 C 363.581 224.955,362.799 219.925,362.744 216.928 C 362.706 214.888,361.737 210.273,361.657 211.753 M43.955 229.642 C 44.622 230.220,45.251 231.404,45.660 232.851 C 46.112 234.450,46.770 235.620,47.836 236.718 C 48.676 237.584,49.363 238.441,49.363 238.622 C 49.363 239.667,51.109 243.359,51.771 243.713 C 52.513 244.110,52.523 244.085,51.964 243.222 C 51.641 242.721,50.996 241.342,50.533 240.157 C 50.069 238.972,49.083 237.262,48.341 236.356 C 47.598 235.451,46.725 233.955,46.399 233.032 C 45.623 230.831,44.861 229.706,43.781 229.166 C 43.042 228.797,43.071 228.875,43.955 229.642 M53.673 245.788 C 53.673 246.211,55.229 249.167,55.452 249.167 C 55.560 249.167,55.270 248.418,54.808 247.502 C 53.900 245.702,53.673 245.359,53.673 245.788 M58.367 252.875 C 59.509 255.238,60.595 256.611,61.321 256.611 C 61.582 256.611,62.159 257.485,62.603 258.553 C 63.227 260.056,63.744 260.655,64.886 261.198 C 65.930 261.695,66.450 262.245,66.664 263.079 C 66.998 264.381,76.222 274.009,77.533 274.425 C 77.954 274.558,78.660 275.282,79.103 276.032 C 79.614 276.899,80.519 277.659,81.580 278.114 C 82.758 278.620,83.446 279.240,83.911 280.215 C 84.397 281.237,85.016 281.770,86.273 282.250 C 87.474 282.708,88.132 283.254,88.507 284.101 C 88.873 284.929,89.599 285.544,90.846 286.085 C 91.841 286.515,93.191 287.332,93.847 287.900 C 94.503 288.468,94.239 288.182,93.259 287.265 C 92.280 286.348,90.686 284.831,89.716 283.893 C 88.746 282.955,87.512 281.964,86.974 281.690 C 86.435 281.417,85.083 280.290,83.969 279.186 C 82.856 278.082,81.750 277.003,81.512 276.787 C 81.274 276.572,80.686 275.795,80.206 275.061 C 79.294 273.666,78.969 273.430,76.893 272.662 C 75.129 272.009,68.767 265.613,67.610 263.329 C 67.086 262.294,66.026 260.966,65.254 260.378 C 64.483 259.790,63.500 258.619,63.071 257.777 C 62.641 256.935,61.941 256.059,61.515 255.831 C 61.090 255.603,60.026 254.364,59.151 253.076 C 57.187 250.183,57.049 250.148,58.367 252.875 M364.822 256.421 C 364.562 257.394,364.349 259.004,364.349 259.999 C 364.349 261.158,364.050 262.290,363.518 263.152 C 362.858 264.220,362.613 265.514,362.326 269.466 C 361.895 275.391,361.590 276.673,360.068 278.971 C 359.432 279.931,358.528 282.125,358.059 283.845 C 357.100 287.363,356.784 288.076,355.485 289.637 C 354.984 290.239,354.319 291.592,354.007 292.642 C 353.240 295.224,352.764 296.053,350.772 298.279 C 349.836 299.326,349.070 300.403,349.070 300.673 C 349.070 300.943,348.612 301.838,348.053 302.663 C 347.041 304.153,347.041 304.158,347.955 303.567 C 348.460 303.240,349.314 302.143,349.853 301.130 C 350.392 300.117,351.399 298.949,352.090 298.533 C 353.321 297.794,353.776 296.780,354.782 292.534 C 354.925 291.929,355.470 291.153,355.994 290.811 C 357.355 289.918,357.941 288.563,358.681 284.594 C 359.193 281.842,359.652 280.617,360.833 278.841 C 361.940 277.178,362.387 276.046,362.533 274.532 C 362.643 273.402,362.902 270.600,363.108 268.306 C 363.388 265.201,363.685 263.847,364.269 263.017 C 364.867 262.168,365.105 261.031,365.264 258.276 C 365.503 254.133,365.470 253.996,364.822 256.421 M96.730 290.182 C 97.463 290.788,98.819 291.957,99.744 292.781 C 100.812 293.734,102.288 294.541,103.798 294.998 C 106.745 295.891,106.555 295.352,103.523 294.217 C 102.290 293.756,100.575 292.809,99.710 292.113 C 98.846 291.417,97.522 290.450,96.768 289.964 L 95.397 289.081 96.730 290.182 M108.521 297.965 C 108.521 298.251,111.611 299.706,112.218 299.706 C 112.545 299.706,113.123 300.191,113.502 300.784 C 114.567 302.449,115.148 302.767,118.441 303.489 C 121.031 304.057,121.589 304.323,122.047 305.211 C 122.712 306.497,124.395 307.323,127.638 307.954 C 129.743 308.364,130.192 308.603,130.700 309.586 C 131.399 310.936,132.959 311.663,135.945 312.027 C 138.540 312.344,140.127 312.913,140.400 313.624 C 140.511 313.914,141.009 314.351,141.506 314.597 C 142.054 314.867,141.713 314.363,140.641 313.317 C 139.039 311.753,138.639 311.566,136.411 311.333 C 133.573 311.036,132.717 310.650,131.067 308.920 C 130.140 307.949,129.315 307.560,127.386 307.186 C 125.383 306.797,124.566 306.397,123.190 305.129 C 121.846 303.890,120.922 303.426,118.861 302.956 C 116.843 302.496,115.871 302.017,114.629 300.873 C 113.312 299.659,108.521 297.378,108.521 297.965 M345.935 305.515 C 345.935 306.448,341.858 310.129,339.567 311.263 C 337.536 312.270,337.105 312.676,336.570 314.093 C 335.760 316.236,333.654 318.728,331.461 320.135 C 329.544 321.366,329.595 321.618,331.557 320.609 C 332.247 320.254,333.523 319.241,334.393 318.356 C 335.264 317.472,336.734 316.219,337.661 315.573 C 338.588 314.927,340.320 313.106,341.510 311.528 C 342.699 309.950,343.914 308.566,344.208 308.453 C 344.891 308.191,346.495 305.621,346.176 305.301 C 346.044 305.169,345.935 305.265,345.935 305.515 M143.781 315.431 C 144.535 315.664,146.041 316.094,147.128 316.387 C 148.216 316.680,149.890 317.527,150.850 318.269 C 152.704 319.702,154.331 320.252,158.010 320.688 C 159.623 320.880,160.645 321.257,161.500 321.977 C 162.196 322.563,162.628 322.750,162.519 322.418 C 162.150 321.295,159.864 320.158,157.403 319.872 C 154.405 319.524,152.388 318.835,150.728 317.593 C 148.632 316.024,147.229 315.469,144.760 315.232 C 142.678 315.033,142.566 315.055,143.781 315.431 M328.532 322.380 C 328.416 322.568,327.391 323.171,326.256 323.720 C 325.121 324.269,323.462 325.398,322.571 326.230 C 321.575 327.159,320.112 328.007,318.778 328.427 C 317.584 328.804,315.704 329.733,314.600 330.492 C 313.467 331.272,311.508 332.141,310.100 332.488 C 308.096 332.983,307.311 333.417,306.105 334.702 C 304.729 336.166,305.248 336.028,306.799 334.516 C 307.164 334.161,307.965 333.773,308.579 333.654 C 309.194 333.535,310.754 333.232,312.047 332.980 C 313.940 332.612,314.665 332.241,315.769 331.072 C 316.850 329.928,317.638 329.514,319.491 329.117 C 321.494 328.688,322.102 328.336,323.604 326.735 C 324.574 325.703,326.014 324.590,326.805 324.264 C 327.596 323.938,328.439 323.303,328.680 322.854 C 329.098 322.073,328.972 321.668,328.532 322.380 M164.577 323.758 C 164.667 323.843,166.540 324.277,168.739 324.723 C 171.742 325.332,173.148 325.831,174.381 326.724 C 175.284 327.378,176.199 327.914,176.414 327.914 C 176.629 327.914,176.206 327.479,175.474 326.947 C 174.742 326.416,173.786 325.717,173.351 325.394 C 172.155 324.507,163.701 322.931,164.577 323.758 M178.061 328.293 C 178.707 328.462,180.558 328.821,182.174 329.089 C 183.790 329.358,185.553 329.875,186.092 330.240 C 187.912 331.471,188.253 331.512,187.029 330.353 C 186.151 329.521,185.018 329.020,182.965 328.556 C 180.003 327.887,175.615 327.651,178.061 328.293 M190.010 332.249 C 190.925 332.657,200.642 333.867,200.903 333.606 C 201.152 333.356,197.127 332.646,194.123 332.410 C 192.400 332.274,190.548 332.084,190.010 331.988 L 189.030 331.814 190.010 332.249 M207.248 336.560 C 207.786 336.791,211.049 337.301,214.497 337.693 C 219.095 338.214,221.132 338.615,222.136 339.194 C 222.890 339.629,224.300 340.080,225.269 340.197 C 226.239 340.314,226.680 340.313,226.249 340.195 C 225.818 340.077,224.248 339.452,222.761 338.804 C 220.592 337.860,219.005 337.520,214.730 337.083 C 211.800 336.784,208.697 336.449,207.835 336.339 C 206.459 336.162,206.388 336.189,207.248 336.560 M299.179 336.740 C 295.294 337.210,287.467 340.042,290.017 340.055 C 290.398 340.057,291.573 339.607,292.629 339.055 C 293.948 338.366,295.814 337.884,298.596 337.516 C 300.823 337.222,303.085 336.803,303.624 336.586 C 304.852 336.090,304.427 336.105,299.179 336.740 M228.567 340.882 C 231.143 342.474,282.686 342.485,286.386 340.894 C 287.208 340.540,287.051 340.503,285.406 340.659 C 275.705 341.584,236.147 341.566,229.383 340.634 C 228.064 340.452,227.935 340.491,228.567 340.882 " stroke="none" fill="#4c5454" fill-rule="evenodd"/></g></svg>
